<?xml version="1.0" encoding="UTF-8"?><svg xmlns="http://www.w3.org/2000/svg" viewBox="0 0 512 512"><g id="a"/><g id="b"><g id="c"><rect width="512" height="512" fill="#2d2d2d"/><path d="M349.31,432.93c-27.86,14.72-59.61,23.07-93.31,23.07-110.46,0-200-89.54-200-200S145.54,56,256,56s197.58,81.63,197.58,192.08c0,15.83-2.33,29.5-9.5,43-7.84,14.77-15.17,25-28.5,33-13.38,8.03-29.97,12.83-43.17,12.83-15.5,0-23.61-4.83-26.79-8.83-7.56-9.49-8.37-29.63-2.41-59.87l21.57-114.83-2.12-.98c-18.36-8.47-43.06-13.33-67.78-13.33-41.6,0-80.05,16.23-108.25,45.69-13.31,13.9-23.74,30.05-31.01,47.98-7.36,18.16-11.09,37.23-11.09,56.67,0,24.07,7.2,44.68,20.83,59.61,12.8,14.01,30.31,21.73,49.31,21.73,36.52,0,65.06-16.72,87.08-51.05,.46,15.18,5.13,27.8,13.68,36.79,8.76,9.2,26.18,14.63,42.81,16.43,18.5,2,45-1.5,69.67-13.17,23.07-10.91,37.67-28.57,47-45.67,0,0,16.67-28.33,16.67-69,0-131.17-104.42-226.58-235.58-226.58S18.5,124.83,18.5,256s106.33,237.5,237.5,237.5c40.54,0,78.7-10.16,112.08-28.06l-18.77-32.51Zm-46.81-183.82c-6.87,38.74-39.51,82.08-72.89,82.08-23.81,0-38.03-16.54-38.03-44.25,0-59.03,43.89-108.91,95.85-108.91,9.73,0,19.01,1.17,27.64,3.49l-12.56,67.59Z" fill="#ffffff"/></g></g></svg>